<svg width="56" height="58" viewBox="0 0 56 58" fill="none" xmlns="http://www.w3.org/2000/svg">
<path d="M36.4001 17.5702C36.3335 17.3704 36.2061 17.1965 36.0358 17.0728C35.8654 16.949 35.6606 16.8817 35.4501 16.8802H30.4801L28.9501 12.1602C28.8843 11.9601 28.7571 11.7859 28.5865 11.6624C28.4159 11.5389 28.2107 11.4724 28.0001 11.4724C27.7895 11.4724 27.5843 11.5389 27.4137 11.6624C27.2431 11.7859 27.1158 11.9601 27.0501 12.1602L25.5201 16.8802H20.5501C20.3395 16.8817 20.1347 16.949 19.9644 17.0728C19.794 17.1965 19.6666 17.3704 19.6001 17.5702C19.5336 17.7719 19.5337 17.9896 19.6003 18.1912C19.6669 18.3928 19.7966 18.5678 19.9701 18.6902L23.9801 21.6102L22.4501 26.3302C22.384 26.5309 22.3833 26.7475 22.448 26.9487C22.5126 27.1499 22.6394 27.3255 22.8101 27.4502C22.9826 27.5722 23.1888 27.6377 23.4001 27.6377C23.6114 27.6377 23.8175 27.5722 23.9901 27.4502L28.0001 24.5302L32.0101 27.4502C32.1841 27.5695 32.3891 27.6355 32.6001 27.6402C32.8115 27.6385 33.0174 27.5722 33.1901 27.4502C33.3608 27.3255 33.4875 27.1499 33.5522 26.9487C33.6169 26.7475 33.6161 26.5309 33.5501 26.3302L32.0201 21.6102L36.0301 18.6902C36.2036 18.5678 36.3333 18.3928 36.3999 18.1912C36.4665 17.9896 36.4666 17.7719 36.4001 17.5702ZM30.2601 20.4202C30.0884 20.5441 29.9602 20.7191 29.8937 20.9202C29.8273 21.1214 29.826 21.3383 29.8901 21.5402L30.7001 24.0202L28.5901 22.4802C28.4182 22.3566 28.2118 22.2901 28.0001 22.2901C27.7884 22.2901 27.582 22.3566 27.4101 22.4802L25.3001 24.0202L26.1101 21.5402C26.1742 21.3383 26.1729 21.1214 26.1065 20.9202C26.04 20.7191 25.9118 20.5441 25.7401 20.4202L23.6301 18.8802H26.2401C26.4513 18.8814 26.6574 18.8151 26.8283 18.691C26.9992 18.5669 27.1259 18.3914 27.1901 18.1902L28.0001 15.7102L28.8101 18.1902C28.8742 18.3914 29.001 18.5669 29.1719 18.691C29.3428 18.8151 29.5489 18.8814 29.7601 18.8802H32.3701L30.2601 20.4202Z" fill="black"/>
<path d="M28 7.26001C24.5861 7.25906 21.3037 8.57696 18.8384 10.9385C16.373 13.3001 14.9152 16.5227 14.7694 19.9335C14.6236 23.3443 15.801 26.6796 18.0558 29.243C20.3106 31.8063 23.4685 33.3996 26.87 33.69C27.25 33.72 27.62 33.74 28 33.74C28.34 33.74 28.69 33.72 29.03 33.69H29.13V33.68C32.5303 33.3896 35.6869 31.7969 37.9408 29.2345C40.1947 26.6721 41.3716 23.338 41.2258 19.9285C41.08 16.519 39.6227 13.2976 37.1582 10.937C34.6937 8.57635 31.4126 7.25901 28 7.26001ZM37.81 25.98C37.8074 25.98 37.8048 25.9811 37.8029 25.9829C37.8011 25.9848 37.8 25.9874 37.8 25.99C36.9055 27.5931 35.6304 28.9515 34.087 29.9456C32.5437 30.9396 30.7795 31.5387 28.95 31.69L28.94 31.7H28.93C28.3047 31.7616 27.6746 31.7582 27.05 31.69C24.6327 31.484 22.347 30.5012 20.5347 28.8884C18.7223 27.2757 17.4806 25.1196 16.9952 22.7427C16.5098 20.3657 16.8068 17.8954 17.8417 15.7012C18.8767 13.507 20.5941 11.7067 22.7371 10.5695C24.8801 9.43229 27.3336 9.01922 29.7308 9.39207C32.128 9.76491 34.3402 10.9036 36.0365 12.638C37.7329 14.3724 38.8224 16.6092 39.142 19.0141C39.4617 21.419 38.9944 23.8627 37.81 25.98Z" fill="black"/>
<path d="M54.88 49.7301L51.12 43.9001C48.43 39.7501 45.7434 35.5934 43.06 31.4301C43.27 31.3501 43.51 31.2601 43.75 31.1801C44.292 31.0716 44.8071 30.8566 45.2654 30.5476C45.7237 30.2386 46.1161 29.8418 46.42 29.3801C46.59 28.858 46.6553 28.3076 46.6124 27.7602C46.5695 27.2129 46.4192 26.6793 46.17 26.1901C45.935 25.6783 45.809 25.1232 45.8 24.5601C46.0477 24.0788 46.3915 23.6534 46.81 23.3101C47.2552 22.973 47.6293 22.5512 47.9107 22.0689C48.1922 21.5867 48.3755 21.0535 48.45 20.5001C48.3766 19.9478 48.1937 19.4157 47.9121 18.9349C47.6305 18.4541 47.2558 18.0343 46.81 17.7001C46.393 17.3514 46.0496 16.923 45.8 16.4401C45.809 15.877 45.935 15.3219 46.17 14.8101C46.419 14.3226 46.5693 13.7908 46.6122 13.245C46.6551 12.6993 46.5898 12.1505 46.42 11.6301C46.1153 11.1692 45.7226 10.7729 45.2644 10.4641C44.8062 10.1552 44.2916 9.93975 43.75 9.83011C43.2115 9.69387 42.7051 9.45259 42.26 9.12011C42.0387 8.61123 41.9165 8.06479 41.9 7.51011C41.9151 6.95899 41.8213 6.41032 41.6239 5.89553C41.4266 5.38074 41.1296 4.90994 40.75 4.51011C39.7942 3.94743 38.6547 3.78566 37.58 4.06011C37.0358 4.17245 36.4743 4.17245 35.93 4.06011C35.5112 3.70922 35.1676 3.27723 34.92 2.79011C34.6926 2.2798 34.366 1.81983 33.9591 1.43698C33.5522 1.05413 33.0732 0.756057 32.55 0.560108C32.0082 0.513529 31.4626 0.574353 30.9443 0.739091C30.4261 0.903828 29.9455 1.16924 29.53 1.52011C29.0758 1.8663 28.5549 2.11483 28 2.25011C27.4452 2.11483 26.9243 1.8663 26.47 1.52011C26.0561 1.17001 25.5772 0.90501 25.0607 0.740278C24.5442 0.575547 24.0002 0.514321 23.46 0.560108C22.9347 0.754334 22.4535 1.05168 22.0447 1.43465C21.636 1.81763 21.308 2.27848 21.08 2.79011C20.8321 3.2742 20.4925 3.70552 20.08 4.06011C19.5324 4.17229 18.9677 4.17229 18.42 4.06011C17.3487 3.78553 16.2121 3.94738 15.26 4.51011C14.8762 4.90946 14.5759 5.38137 14.3767 5.89822C14.1775 6.41506 14.0835 6.96646 14.1 7.52011C14.0898 8.07343 13.9638 8.61848 13.73 9.12011C13.294 9.45314 12.7934 9.69156 12.26 9.82011C11.1637 10.0418 10.2 10.6891 9.58003 11.6201C9.41011 12.1422 9.34473 12.6926 9.38762 13.24C9.43052 13.7873 9.58085 14.3209 9.83003 14.8101C10.0651 15.3219 10.1911 15.877 10.2 16.4401C9.95042 16.923 9.60707 17.3514 9.19003 17.7001C8.74423 18.0343 8.36957 18.4541 8.08797 18.9349C7.80637 19.4157 7.62349 19.9478 7.55003 20.5001C7.62459 21.0535 7.80788 21.5867 8.08934 22.0689C8.3708 22.5512 8.74488 22.973 9.19003 23.3101C9.60859 23.6534 9.95234 24.0788 10.2 24.5601C10.1911 25.1232 10.0651 25.6783 9.83003 26.1901C9.58104 26.6776 9.43078 27.2095 9.38788 27.7552C9.34498 28.3009 9.41028 28.8497 9.58003 29.3701C9.88237 29.8332 10.2744 30.2311 10.733 30.5402C11.1915 30.8493 11.7074 31.0635 12.25 31.1701C12.48 31.2601 12.72 31.3401 12.94 31.4301C10.25 35.5901 7.56336 39.7468 4.88003 43.9001L1.12003 49.7301C1.01157 49.8935 0.954557 50.0856 0.956339 50.2816C0.958122 50.4777 1.01862 50.6688 1.13003 50.8301C1.23867 50.9914 1.39234 51.1172 1.57191 51.1919C1.75148 51.2666 1.94904 51.2868 2.14003 51.2501L8.97003 49.9801L10.63 56.7401C10.6782 56.929 10.7806 57.0996 10.9245 57.2311C11.0684 57.3626 11.2476 57.4491 11.44 57.4801C11.4926 57.4917 11.5462 57.4984 11.6 57.5001C11.7676 57.5012 11.9327 57.4596 12.0797 57.3791C12.2267 57.2986 12.3507 57.1819 12.44 57.0401L23.22 40.3501C23.3 40.3701 23.37 40.4201 23.45 40.4401C23.6139 40.4792 23.7816 40.4993 23.95 40.5001C24.868 40.3989 25.7401 40.0459 26.47 39.4801C26.9243 39.1339 27.4452 38.8854 28 38.7501C28.5549 38.8854 29.0758 39.1339 29.53 39.4801C29.9458 39.8338 30.4279 40.1008 30.9482 40.2657C31.4685 40.4305 32.0165 40.4898 32.56 40.4401C32.64 40.4201 32.71 40.3701 32.78 40.3501L43.56 57.0401C43.6493 57.1819 43.7734 57.2986 43.9204 57.3791C44.0673 57.4596 44.2324 57.5012 44.4 57.5001C44.4539 57.4984 44.5074 57.4917 44.56 57.4801C44.7525 57.4491 44.9317 57.3626 45.0756 57.2311C45.2195 57.0996 45.3218 56.929 45.37 56.7401L47.03 49.9801L53.86 51.2501C54.051 51.2858 54.2482 51.265 54.4275 51.1905C54.6069 51.1159 54.7607 50.9907 54.87 50.8301C54.9814 50.6688 55.0419 50.4777 55.0437 50.2816C55.0455 50.0856 54.9885 49.8935 54.88 49.7301ZM12.02 54.0001L10.69 48.5901C10.6303 48.3419 10.4779 48.126 10.2641 47.9866C10.0503 47.8471 9.79123 47.7947 9.54003 47.8401L4.06003 48.8601L6.56003 44.9901C9.06003 41.1101 11.5667 37.2301 14.08 33.3501C14.0909 33.3961 14.0976 33.4429 14.1 33.4901C14.085 34.0412 14.1788 34.5899 14.3761 35.1047C14.5735 35.6195 14.8704 36.0903 15.25 36.4901C16.206 37.0523 17.3454 37.214 18.42 36.9401C18.9643 36.8278 19.5258 36.8278 20.07 36.9401C20.4913 37.2887 20.8353 37.7212 21.08 38.2101C21.27 38.5001 21.46 38.7901 21.66 39.0701L12.02 54.0001ZM32.4 38.2901C32.3192 38.3818 32.2158 38.4508 32.1 38.4901C31.82 38.5501 31.08 38.1001 30.6 37.7901C29.8482 37.2063 28.9471 36.8459 28 36.7501C27.0529 36.8459 26.1519 37.2063 25.4 37.7901C24.92 38.1001 24.18 38.5601 23.91 38.5001C23.7874 38.4532 23.6777 38.3778 23.59 38.2801C23.2803 37.9335 23.0088 37.5547 22.78 37.1501C22.3662 36.3247 21.7331 35.6293 20.95 35.1401C20.4954 34.9332 19.9992 34.8339 19.5 34.8501C19.0651 34.8586 18.6311 34.892 18.2 34.9501C17.58 35.0201 16.74 35.1201 16.5 34.9301C16.26 34.7401 16.16 33.8901 16.09 33.2701C16.0778 32.3337 15.8042 31.4193 15.3 30.6301C15.2205 30.5303 15.1299 30.4397 15.03 30.3601C14.9919 30.3277 14.9518 30.2977 14.91 30.2701L14.9 30.2601H14.89C14.2922 29.8229 13.6219 29.4945 12.91 29.2901C12.32 29.0801 11.52 28.8001 11.38 28.5001C11.24 28.2201 11.52 27.4301 11.72 26.8501C12.1206 25.9997 12.2698 25.0525 12.15 24.1201C11.8564 23.2443 11.3186 22.4706 10.6 21.8901C10.16 21.4501 9.55003 20.8401 9.55003 20.5001C9.55003 20.1601 10.16 19.5501 10.6 19.1101C11.3186 18.5296 11.8564 17.7559 12.15 16.8801C12.2698 15.9477 12.1206 15.0005 11.72 14.1501C11.52 13.5701 11.24 12.7801 11.38 12.4901C11.52 12.2001 12.33 11.9201 12.92 11.7101C13.8215 11.4982 14.6437 11.0333 15.29 10.3701C15.8017 9.5875 16.0792 8.67507 16.09 7.74011C16.16 7.12011 16.25 6.28011 16.5 6.08011C16.75 5.88011 17.58 5.98011 18.2 6.05011C19.1164 6.24532 20.0692 6.1795 20.95 5.86011C21.7354 5.37376 22.3693 4.67757 22.78 3.85011C23.11 3.31011 23.57 2.58011 23.9 2.51011C24.18 2.44011 24.92 2.91011 25.4 3.21011C26.1519 3.79394 27.0529 4.15435 28 4.25011C28.9471 4.15435 29.8482 3.79394 30.6 3.21011C31.08 2.91011 31.81 2.45011 32.1 2.51011C32.43 2.58011 32.89 3.31011 33.22 3.85011C33.6308 4.67757 34.2646 5.37376 35.05 5.86011C35.9309 6.1795 36.8836 6.24532 37.8 6.05011C38.42 5.98011 39.26 5.88011 39.5 6.07011C39.74 6.26011 39.84 7.11011 39.91 7.73011C39.9222 8.66653 40.1958 9.58092 40.7 10.3701C41.3559 11.0332 42.1835 11.5007 43.09 11.7201C43.68 11.9201 44.48 12.2001 44.62 12.5001C44.76 12.7801 44.48 13.5701 44.28 14.1501C43.8795 15.0005 43.7303 15.9477 43.85 16.8801C44.1437 17.7559 44.6815 18.5296 45.4 19.1101C45.84 19.5501 46.45 20.1601 46.45 20.5001C46.45 20.8401 45.84 21.4501 45.4 21.8901C44.6815 22.4706 44.1437 23.2443 43.85 24.1201C43.7303 25.0525 43.8795 25.9997 44.28 26.8501C44.48 27.4301 44.76 28.2201 44.62 28.5101C44.48 28.8001 43.67 29.0901 43.09 29.2901C42.3412 29.4947 41.6385 29.841 41.02 30.3101C40.9092 30.4092 40.8056 30.5162 40.71 30.6301C40.1984 31.4127 39.9208 32.3252 39.91 33.2601C39.84 33.8801 39.75 34.7201 39.5 34.9201C39.25 35.1201 38.42 35.0201 37.8 34.9501C36.884 34.7499 35.9298 34.8158 35.05 35.1401C34.267 35.6293 33.6338 36.3247 33.22 37.1501C32.9889 37.5588 32.714 37.941 32.4 38.2901ZM46.46 47.8401C46.2088 47.7947 45.9498 47.8471 45.736 47.9866C45.5222 48.126 45.3698 48.3419 45.31 48.5901L43.98 54.0001L34.34 39.0701C34.54 38.7901 34.73 38.5001 34.92 38.2101C35.1651 37.7242 35.5051 37.2923 35.92 36.9401C36.4677 36.8279 37.0324 36.8279 37.58 36.9401C38.6514 37.2147 39.7879 37.0528 40.74 36.4901C41.123 36.0922 41.4228 35.6219 41.6219 35.1068C41.8211 34.5918 41.9156 34.0421 41.9 33.4901C41.9018 33.4429 41.9085 33.3959 41.92 33.3501C44.43 37.2301 46.9367 41.1101 49.44 44.9901L51.94 48.8601L46.46 47.8401Z" fill="black"/>
</svg>
