<svg width="58" height="60" viewBox="0 0 58 60" fill="none" xmlns="http://www.w3.org/2000/svg">
<path d="M56.8468 15.5687C56.8468 15.4808 56.8468 15.4181 56.8468 15.4055C56.8512 12.0286 55.618 8.76251 53.372 6.20232C51.1259 3.64209 48.0164 1.95815 44.61 1.45725C42.669 1.16712 40.6884 1.26314 38.786 1.7396C35.685 2.52236 32.9377 4.29445 30.9771 6.77662C29.0166 9.25882 27.9542 12.31 27.9572 15.4494V15.6439C27.9501 16.8063 28.0876 17.9652 28.3668 19.0949C27.298 18.9819 26.4084 18.9067 26.306 18.913C26.1928 18.9351 26.0854 18.98 25.9908 19.0448C25.8961 19.1096 25.816 19.1929 25.7556 19.2894C25.6007 19.4925 25.41 19.6667 25.1924 19.8039L25.0068 19.9231C24.578 20.1929 24.5332 20.2243 24.0916 20.1428C23.2546 19.9567 22.4279 19.7284 21.6148 19.4589C21.6148 19.4024 21.6148 19.3333 21.6148 19.2643C21.609 18.8316 21.5132 18.4045 21.3332 18.0094C21.1844 17.6067 21.1044 17.1827 21.0964 16.7545C21.0932 16.6921 21.0773 16.631 21.0497 16.5747C21.0221 16.5184 20.9834 16.468 20.9357 16.4266C20.8881 16.3851 20.8324 16.3533 20.7722 16.3331C20.7118 16.313 20.648 16.3048 20.5844 16.309C20.4756 16.309 17.8964 16.4847 17.1028 16.6102C16.9048 16.6263 16.7057 16.6263 16.5076 16.6102C15.7551 16.5604 15.0102 16.7837 14.4148 17.2377C13.4676 17.9843 13.1988 18.0785 12.5268 18.0785C11.7396 18.1161 11.2916 19.0447 10.8564 19.9608C10.7269 20.2583 10.5706 20.5438 10.3892 20.8141C10.3318 20.7909 10.2762 20.7636 10.2228 20.7325C9.88025 20.5391 9.49183 20.4374 9.09644 20.4376C8.10706 20.5644 7.13753 20.811 6.21004 21.1718C5.76908 21.3255 5.3205 21.4574 4.86604 21.5671C4.64306 21.5714 4.42911 21.6543 4.26342 21.8007C4.09772 21.947 3.99129 22.147 3.96364 22.364C3.9294 22.4945 3.87999 22.6208 3.81644 22.7404C3.63346 23.1467 3.5502 23.5894 3.57324 24.033C3.57324 24.1083 3.57324 24.1898 3.57324 24.2651H3.45164C3.16222 24.1844 2.85749 24.1715 2.56205 24.2274C2.46929 24.2528 2.38281 24.2964 2.30796 24.3558C2.23311 24.4151 2.17147 24.4889 2.12685 24.5725C1.88365 25.0557 2.17165 25.9404 2.38285 26.4549C2.38285 26.4549 3.02285 27.6596 2.38285 28.4941C1.56365 29.5796 1.01965 30.2949 1.53805 31.1168C1.79293 31.4551 2.10716 31.7462 2.46605 31.9765C2.7791 32.175 3.05241 32.4281 3.27245 32.7232C3.3135 33.1073 3.26536 33.4955 3.13165 33.8589C3.00201 34.1689 2.97296 34.5107 3.04845 34.8376C3.11268 34.9819 3.21147 35.1089 3.33645 35.2078L3.38125 35.2517C3.40863 35.3588 3.40863 35.471 3.38125 35.578C3.15725 36.6572 2.93325 38.0189 3.09965 38.3702C3.20616 38.7233 3.26849 39.0878 3.28525 39.4557C3.28525 39.5373 3.28525 39.5811 3.28525 39.5874V39.6502C3.28525 39.7129 3.20205 39.8133 3.13805 39.9639C2.95885 40.3843 3.13805 40.7043 3.63084 40.9302C3.78169 40.9806 3.91622 41.0693 4.02079 41.1872C4.1253 41.3051 4.19615 41.4481 4.22604 41.6015C4.3285 42.001 4.39705 42.4082 4.43084 42.8188C4.50124 43.5278 4.58444 44.3247 5.35244 44.3247C5.48044 44.3247 5.54444 44.3247 5.55724 44.3247C5.57593 44.4264 5.57593 44.5305 5.55724 44.6321C5.50604 45.5106 7.00364 46.0502 8.29644 46.3513C8.46764 46.4783 8.60767 46.6412 8.70604 46.8282C8.77721 46.9503 8.87398 47.0561 8.99007 47.1387C9.1061 47.2213 9.23871 47.2787 9.37913 47.3072C9.51954 47.3357 9.66457 47.3346 9.80454 47.3039C9.94444 47.2733 10.0762 47.2138 10.1908 47.1294C10.3282 47.0633 10.4693 47.0046 10.6132 46.9537C10.6678 47.0285 10.705 47.1143 10.722 47.2047C10.6772 47.2549 10.6132 47.3113 10.5492 47.3741C10.2562 47.6189 10.0036 47.9068 9.80044 48.2274C9.41644 48.9051 10.2548 49.5639 11.1508 50.2666C11.4337 50.4762 11.705 50.7003 11.9636 50.938C12.0755 51.0408 12.2072 51.1207 12.3509 51.173C12.4947 51.2253 12.6477 51.2489 12.8008 51.2425C12.954 51.236 13.1044 51.1997 13.2431 51.1356C13.3818 51.0715 13.506 50.9809 13.6084 50.869C14.114 50.4423 14.6004 49.6141 14.2484 49.0431L14.9908 49.3568C15.4792 49.5803 15.9816 49.7731 16.4948 49.9341C16.4948 49.9341 16.4948 49.9906 16.4948 50.0157C16.3739 50.32 16.2755 50.6324 16.2004 50.9506C16.1565 51.0935 16.1555 51.2459 16.1975 51.3894C16.2395 51.533 16.3227 51.6616 16.4372 51.76C16.8212 52.0611 17.3396 51.8478 17.8388 51.6407L18.2036 51.5027C18.498 51.9921 19.3044 52.1302 19.9124 52.2619L20.1172 52.2996C20.4511 52.9476 20.8947 53.5353 21.4292 54.0376C21.5994 54.2572 21.7473 54.4926 21.8708 54.7404C22.2228 55.3678 22.626 56.1083 23.2916 56.2965C23.4483 56.3416 23.6129 56.3543 23.7748 56.3338C23.9368 56.3133 24.0927 56.26 24.2324 56.1772C24.7234 55.8999 25.1716 55.5555 25.5636 55.1545C25.6724 55.2925 25.8132 55.4494 25.9732 55.6251C26.1337 55.7936 26.2833 55.9717 26.4212 56.1584C26.4212 56.4157 26.5556 56.8423 28.3412 57.7898C28.3966 57.8208 28.4577 57.8408 28.521 57.8484C28.5842 57.8561 28.6484 57.8513 28.7098 57.8344C28.7711 57.8174 28.8285 57.7886 28.8783 57.7497C28.9282 57.7109 28.9698 57.6626 29.0004 57.6078C29.1641 57.2609 29.2554 56.8855 29.2692 56.5035C29.6019 56.3266 29.957 56.1937 30.3252 56.1082C30.5869 56.0398 30.8436 55.9538 31.0932 55.8509L31.2468 56.0078C31.5882 56.4098 32.0491 56.6972 32.5652 56.8298C32.7231 56.8839 32.8908 56.9046 33.0573 56.8905C33.2239 56.8764 33.3856 56.8279 33.5316 56.7482C33.6635 56.6554 33.7731 56.5354 33.8527 56.3966C33.9323 56.2579 33.98 56.1038 33.9924 55.9451V55.876H34.05C34.4262 55.759 34.8205 55.7079 35.2148 55.7255C35.5796 55.7039 35.9444 55.7684 36.2785 55.9136C36.6125 56.0588 36.9062 56.2805 37.1348 56.56C37.5764 57.3192 38.338 57.6204 39.3876 58.0282L40.1108 58.3231C40.5266 58.5172 40.9762 58.6321 41.4356 58.6619C41.6299 58.6676 41.8222 58.6221 41.9924 58.5302C42.1304 58.4433 42.2456 58.3261 42.329 58.1876C42.4123 58.0493 42.4615 57.8937 42.4724 57.7333C42.5364 57.2251 42.1012 56.8862 41.8324 56.6604L41.6724 56.5349C41.6724 54.7906 41.4356 54.4141 41.2756 54.2384C41.3181 54.0765 41.3396 53.9099 41.3396 53.7427C42.2666 52.33 43.2751 50.9704 44.3604 49.6706C44.8148 49.0996 45.0004 48.8172 45.1476 48.6666H45.2628C45.8132 48.5537 47.106 48.2902 47.3428 47.098C47.4392 46.7847 47.4382 46.4503 47.3402 46.1375C47.2422 45.8247 47.0515 45.5475 46.7924 45.3411C46.9537 45.2465 47.0881 45.1135 47.1832 44.9545C47.2782 44.7955 47.3309 44.6156 47.3364 44.4313C47.3243 44.3064 47.2797 44.1866 47.2069 44.0833C47.1341 43.98 47.0354 43.8968 46.9204 43.8415C46.2326 43.0507 45.6637 42.1676 45.2308 41.2188C56.5716 25.0619 56.9044 17.1373 56.8468 15.5687ZM46.2804 44.5255L46.1716 44.6196C45.922 44.8078 45.4676 45.1718 45.7492 45.6298C45.8388 45.7615 45.9541 45.8745 46.0884 45.9623C46.338 46.138 46.5364 46.2823 46.4148 46.8972C46.2932 47.5121 45.6724 47.5686 45.0516 47.7192C44.7572 47.7819 44.5012 47.8384 44.4116 48.0768C44.3348 48.196 43.97 48.6541 43.618 49.0933C40.898 52.5192 40.418 53.2721 40.418 53.6674C40.4164 53.7817 40.4014 53.8954 40.3732 54.0062C40.32 54.1467 40.311 54.2996 40.3476 54.445C40.3841 54.5905 40.4644 54.7218 40.578 54.8219C40.7304 55.4119 40.7866 56.0218 40.7444 56.629C40.7444 56.9678 41.026 57.1874 41.2692 57.3756C41.3757 57.4518 41.4743 57.538 41.5636 57.6329C41.5636 57.6329 41.5636 57.6831 41.5636 57.6894C41.2055 57.6909 40.8529 57.6024 40.5396 57.4321C40.2772 57.3192 40.0276 57.2251 39.7972 57.1309C38.786 56.7356 38.2932 56.5035 38.0244 56.0705C37.4612 55.1043 36.1812 54.7592 35.2532 54.7592C34.7725 54.7382 34.2916 54.7998 33.8324 54.9411L33.6596 54.9913C33.497 55.0423 33.3532 55.1392 33.2462 55.2697C33.1393 55.4002 33.0738 55.5587 33.058 55.7255C33.0484 55.7879 33.0484 55.8513 33.058 55.9137C32.9823 55.9318 32.9034 55.9318 32.8276 55.9137C32.4888 55.8211 32.1885 55.6256 31.97 55.3553C31.8453 55.1586 31.6525 55.0123 31.427 54.9432C31.2015 54.8741 30.9581 54.8867 30.7412 54.9788C30.5334 55.0667 30.3196 55.14 30.1012 55.1985C29.282 55.4369 28.354 55.7004 28.354 56.4534C28.3608 56.541 28.3608 56.6292 28.354 56.7168C28.0386 56.5377 27.7427 56.3274 27.4708 56.0894C27.3467 55.6795 27.1044 55.3135 26.7732 55.0353C26.6132 54.8596 26.3508 54.5709 26.3124 54.5019C26.3034 54.3992 26.264 54.3013 26.1993 54.2199C26.1345 54.1386 26.0471 54.0775 25.9476 54.0439C25.602 53.9247 25.3588 54.1568 25.0324 54.4706C24.6847 54.8293 24.2885 55.1397 23.8548 55.3929C23.7268 55.4619 23.6692 55.4431 23.6436 55.4368C23.362 55.3553 23.0356 54.7592 22.7988 54.3262C22.6426 54.0138 22.4516 53.7192 22.2292 53.4478C21.8271 53.0286 21.461 52.5773 21.1348 52.0988C21.1567 52.0059 21.1567 51.9094 21.1348 51.8164C21.0004 51.5278 20.706 51.4713 20.2132 51.3772C19.8516 51.3251 19.4973 51.2325 19.1572 51.1011C19.1442 51.0048 19.1086 50.9127 19.053 50.832C18.9975 50.7515 18.9236 50.6846 18.8372 50.6368C18.4788 50.4423 18.0436 50.6368 17.5892 50.8125L17.3076 50.9255C17.353 50.7304 17.4085 50.5377 17.474 50.3482C17.5415 50.2068 17.5764 50.0526 17.5764 49.8964C17.5764 49.7403 17.5415 49.5861 17.474 49.4447C17.401 49.3408 17.306 49.2535 17.1956 49.1885C17.0852 49.1236 16.9619 49.0826 16.834 49.0682C16.3609 48.9147 15.8972 48.7345 15.4452 48.5286C13.8964 47.9011 13.5252 47.7443 13.2052 47.9513C13.1354 48.0017 13.0779 48.0667 13.0369 48.1416C12.996 48.2165 12.9725 48.2994 12.9684 48.3843C12.9857 48.8123 13.1634 49.2189 13.4676 49.5262C13.3686 49.862 13.1386 50.146 12.8276 50.3168C12.7316 50.3607 12.706 50.3168 12.674 50.3168C12.3712 50.0364 12.0529 49.7725 11.7204 49.5262C11.3329 49.2556 10.9785 48.9419 10.6644 48.5913C10.8175 48.4 10.9866 48.2216 11.17 48.058C11.458 47.7819 11.6564 47.6 11.6564 47.3239C11.6544 47.1147 11.6084 46.9081 11.5215 46.7171C11.4345 46.526 11.3083 46.3545 11.1508 46.2133C11.0331 46.1253 10.8957 46.0658 10.75 46.0396C10.6043 46.0135 10.4544 46.0214 10.3124 46.0627C10.1135 46.1169 9.9205 46.1905 9.73644 46.2823L9.50604 46.3827C9.30482 45.9651 8.95404 45.6346 8.52044 45.4541C7.78508 45.3258 7.08524 45.0479 6.46604 44.6384C6.49042 44.4703 6.47967 44.2991 6.43462 44.1352C6.3895 43.9712 6.3109 43.818 6.20364 43.6847C6.09862 43.5873 5.97503 43.5111 5.83999 43.4605C5.70489 43.4098 5.56102 43.3859 5.41644 43.3898C5.36972 43.1683 5.33766 42.944 5.32044 42.7184C5.27929 42.2574 5.20223 41.8001 5.09004 41.3506C5.03167 41.0755 4.90713 40.8182 4.72684 40.5999C4.54649 40.3816 4.31551 40.2088 4.05324 40.0956V40.0329C4.15679 39.8405 4.19705 39.6213 4.16844 39.4055C4.15052 38.9199 4.06655 38.4387 3.91884 37.9749C3.96876 37.2128 4.07788 36.4556 4.24524 35.7098C4.32626 35.4917 4.33721 35.2545 4.2766 35.0302C4.21593 34.8058 4.08658 34.605 3.90604 34.4549C3.90604 34.3482 3.97004 34.1726 4.00844 34.0345C4.22732 33.4703 4.25426 32.8518 4.08524 32.2713C3.81318 31.8632 3.45529 31.5166 3.03565 31.2549C2.77707 31.0777 2.5445 30.8666 2.34445 30.6275C2.20365 30.3953 2.34445 30.1192 3.14445 29.0526C4.13644 27.7412 3.26605 26.0847 3.25325 26.0658C3.128 25.7613 3.03992 25.4433 2.99085 25.1185L3.24685 25.1686C3.56684 25.2376 4.24524 25.3757 4.45004 24.7733C4.51186 24.5399 4.53983 24.2991 4.53324 24.058C4.51846 23.7624 4.56863 23.4671 4.68044 23.1922C4.77695 23.0115 4.85004 22.8197 4.89804 22.6212C4.89804 22.5898 4.89804 22.5396 4.93644 22.5083C5.47359 22.4084 6.00057 22.2614 6.51084 22.069C7.33945 21.76 8.19686 21.5309 9.07084 21.3851C9.31052 21.3843 9.54553 21.4496 9.74924 21.5734C9.91846 21.6883 10.1194 21.7499 10.3252 21.7499C10.5311 21.7499 10.732 21.6883 10.9012 21.5734C11.2718 21.2444 11.5533 20.8305 11.7204 20.3687C11.906 19.9859 12.3604 19.1138 12.5716 19.0447C13.479 19.0103 14.3402 18.643 14.9844 18.0157C15.4144 17.6906 15.9544 17.538 16.4948 17.589C16.741 17.5926 16.987 17.5779 17.2308 17.5451C17.7876 17.4573 19.3684 17.3443 20.162 17.2879C20.1937 17.7017 20.3044 18.1062 20.4884 18.48C20.5796 18.7561 20.6314 19.0433 20.642 19.3334C20.674 19.7349 20.6932 19.9607 20.8596 20.1239C21.154 20.4125 23.6628 21.0149 23.906 21.0588C24.1863 21.1327 24.4806 21.1388 24.7638 21.0765C25.047 21.0142 25.3105 20.8854 25.5316 20.7012L25.7108 20.5883C26.0155 20.3965 26.284 20.1545 26.5044 19.873C26.85 19.873 27.6756 19.9733 28.5844 20.08C29.762 24.6164 33.0644 32.5725 42.0244 44.6133C42.0698 44.673 42.1287 44.7217 42.1964 44.7554C42.2641 44.7892 42.3389 44.8071 42.4148 44.8078C42.4899 44.8071 42.5638 44.7891 42.6305 44.7553C42.6971 44.7216 42.7548 44.6729 42.7988 44.6133C43.4388 43.76 44.034 42.9317 44.6164 42.1035C45.0538 42.9827 45.6138 43.7978 46.2804 44.5255ZM42.4404 43.5278C28.898 25.2188 28.8788 16.5851 28.9172 15.6564C28.9238 15.6339 28.9238 15.61 28.9172 15.5875C28.914 15.5415 28.914 15.4954 28.9172 15.4494C28.911 12.518 29.902 9.66817 31.7335 7.35099C33.5649 5.03382 36.1323 3.38156 39.0292 2.65568C40.1283 2.37444 41.2598 2.23314 42.3956 2.23529C43.0898 2.2378 43.7829 2.29023 44.4692 2.39215C47.6596 2.86972 50.5682 4.45685 52.6634 6.86353C54.7586 9.27018 55.9005 12.3356 55.8804 15.4996C55.8804 15.4996 55.8804 15.5561 55.8804 15.6753C55.9444 17.2063 55.5732 25.6894 42.402 43.5278H42.4404Z" stroke="black" stroke-width="2"/>
</svg>
