<svg width="64" height="64" viewBox="0 0 64 64" fill="none" xmlns="http://www.w3.org/2000/svg">
<path d="M2.66669 18.6667V2.66675H18.6667" stroke="#020202" stroke-width="3" stroke-miterlimit="10"/>
<path d="M45.3333 2.66675H61.3333V18.6667" stroke="#020202" stroke-width="3" stroke-miterlimit="10"/>
<path d="M2.66669 45.3333V61.3333H18.6667" stroke="#020202" stroke-width="3" stroke-miterlimit="10"/>
<path d="M45.3333 61.3333H61.3333V45.3333" stroke="#020202" stroke-width="3" stroke-miterlimit="10"/>
<path d="M58.6666 31.9999C55.9679 36.6857 52.0821 40.5776 47.4007 43.2837C42.7192 45.9898 37.4073 47.4147 32 47.4147C26.5926 47.4147 21.2808 45.9898 16.5993 43.2837C11.9178 40.5776 8.03205 36.6857 5.33331 31.9999C8.03205 27.3142 11.9178 23.4223 16.5993 20.7162C21.2808 18.01 26.5926 16.5852 32 16.5852C37.4073 16.5852 42.7192 18.01 47.4007 20.7162C52.0821 23.4223 55.9679 27.3142 58.6666 31.9999Z" stroke="#020202" stroke-width="3" stroke-miterlimit="10"/>
<path d="M58.6666 31.9999C55.9679 36.6857 52.0821 40.5776 47.4007 43.2837C42.7192 45.9898 37.4073 47.4147 32 47.4147C26.5926 47.4147 21.2808 45.9898 16.5993 43.2837C11.9178 40.5776 8.03205 36.6857 5.33331 31.9999C8.03205 27.3142 11.9178 23.4223 16.5993 20.7162C21.2808 18.01 26.5926 16.5852 32 16.5852C37.4073 16.5852 42.7192 18.01 47.4007 20.7162C52.0821 23.4223 55.9679 27.3142 58.6666 31.9999Z" stroke="#020202" stroke-width="3" stroke-miterlimit="10"/>
<path d="M32 40C36.4183 40 40 36.4183 40 32C40 27.5817 36.4183 24 32 24C27.5817 24 24 27.5817 24 32C24 36.4183 27.5817 40 32 40Z" stroke="#020202" stroke-width="3" stroke-miterlimit="10"/>
</svg>
