<svg width="410" height="24" viewBox="0 0 410 24" fill="none" xmlns="http://www.w3.org/2000/svg">
<g clip-path="url(#clip0_158_539)">
<path d="M127.832 0H98.2064V23.0144H127.832V0Z" fill="white"/>
<path d="M174.339 3.2896V19.7163H151.267V3.2896H174.339ZM177.995 0H147.619V23.0144H177.989V0H177.995Z" fill="white"/>
<path d="M40.3322 22.9676C39.6611 22.9676 39.0159 22.9782 38.3706 22.9569C38.2717 22.9569 38.1555 22.8267 38.0781 22.7307C35.3853 19.2193 32.6946 15.7057 30.0061 12.1899L24.4871 4.97501C24.4226 4.88968 24.3559 4.80648 24.2333 4.65288V22.9441H22.1448V1.18408C22.818 1.18408 23.4913 1.18408 24.1645 1.18408C24.2526 1.18408 24.3494 1.32488 24.4204 1.41661L30.6879 9.60222L38.048 19.2235C38.0953 19.2833 38.1491 19.3409 38.2416 19.4475V1.21395H40.3322V22.9676Z" fill="black"/>
<path d="M61.1499 22.9145V1.19716C61.221 1.18365 61.2928 1.17439 61.365 1.16943C64.0708 1.16943 66.7808 1.13743 69.4865 1.1865C73.8247 1.2633 77.8037 4.09423 79.3545 8.12197C80.0504 9.86183 80.2729 11.7526 79.9997 13.6046C79.3158 18.0846 76.0207 21.6388 71.7191 22.6222C70.9108 22.8055 70.0854 22.9042 69.2564 22.9166C66.6431 22.9529 64.0256 22.9294 61.4102 22.9294C61.3263 22.9294 61.2446 22.9209 61.1499 22.9145ZM63.2685 20.8345C63.3631 20.8345 63.4212 20.8452 63.4836 20.8452C65.3914 20.8452 67.2991 20.8452 69.2048 20.8452C70.2324 20.8497 71.2524 20.6705 72.2159 20.3161C74.3817 19.5144 76.1481 17.9086 77.1416 15.8383C78.1351 13.7679 78.2777 11.3955 77.5392 9.22276C76.395 5.7945 72.9988 3.31557 69.3661 3.2793C67.4174 3.2601 65.4688 3.2793 63.5223 3.2793C63.4427 3.2793 63.3631 3.2793 63.2685 3.29637V20.8345Z" fill="black"/>
<path d="M210.365 22.9716C210.309 22.9332 206.623 17.666 204.857 15.1444C204.804 15.0551 204.727 14.9823 204.635 14.9344C204.542 14.8865 204.438 14.8654 204.334 14.8735C202.614 14.8842 200.893 14.8735 199.172 14.8735H198.809V22.9098H196.714V1.1967C196.762 1.18271 196.812 1.17342 196.862 1.16897C200.009 1.16897 203.16 1.13057 206.307 1.19883C209.12 1.2607 211.804 3.35777 212.654 6.0159C213.729 9.3695 211.929 13.0196 208.567 14.3231C208.15 14.4852 207.72 14.6132 207.249 14.7732C209.116 17.4783 211.038 20.241 212.92 22.9716H210.365ZM198.813 12.7871H199.166C201.33 12.7871 203.493 12.7871 205.655 12.7871C206.814 12.8004 207.946 12.4403 208.881 11.761C210.776 10.4127 211.436 7.9615 210.354 5.96897C209.374 4.1599 207.773 3.25963 205.713 3.24043C203.519 3.2191 201.325 3.24043 199.131 3.24043C199.033 3.24043 198.934 3.24043 198.82 3.2575L198.813 12.7871Z" fill="black"/>
<path d="M2.06902 22.9183H0.00852966V1.14551H2.06902V22.9183Z" fill="black"/>
<path d="M278.185 1.20538V22.9376H276.111V5.14138L276.045 5.12218L266.818 19.919L257.591 5.12645H257.539V22.9312H255.438V1.20751C256.115 1.20751 256.778 1.20751 257.442 1.22031C257.535 1.22031 257.645 1.36751 257.709 1.46991C259.13 3.74547 260.548 6.02102 261.963 8.29658C263.519 10.7968 265.076 13.2964 266.633 15.7952C266.687 15.8784 266.745 15.9595 266.818 16.0683C266.893 15.9531 266.955 15.855 267.014 15.7718C269.977 11.0159 272.938 6.25853 275.896 1.49978C275.945 1.40192 276.022 1.32128 276.118 1.26894C276.215 1.2166 276.325 1.19514 276.434 1.20751C277.006 1.22031 277.58 1.20538 278.185 1.20538Z" fill="black"/>
<path d="M333.396 22.946V1.23936C333.467 1.22295 333.539 1.21224 333.611 1.20736C336.306 1.20736 339.006 1.17109 341.701 1.22442C344.327 1.30883 346.836 2.32586 348.771 4.09042C350.705 5.85498 351.937 8.24978 352.241 10.839C352.545 13.4282 351.902 16.0397 350.429 18.1983C348.955 20.3569 346.75 21.919 344.213 22.6004C343.339 22.821 342.443 22.9391 341.542 22.9524C338.907 22.9972 336.272 22.9695 333.635 22.9695C333.566 22.9631 333.495 22.9546 333.396 22.946ZM335.517 20.8746H335.887C337.661 20.8746 339.436 20.8746 341.208 20.8746C341.639 20.876 342.07 20.8539 342.499 20.8084C344.72 20.5254 346.75 19.4182 348.181 17.7098C349.612 16.0013 350.338 13.8185 350.211 11.6009C350.085 9.38326 349.116 7.29555 347.5 5.75812C345.883 4.2207 343.74 3.34776 341.501 3.31509C339.582 3.29162 337.666 3.31509 335.747 3.31509C335.67 3.31928 335.593 3.32783 335.517 3.34069V20.8746Z" fill="black"/>
<path d="M299.007 22.9185V1.20117H314.738V3.2641H301.132V10.8502H312.764V12.943H301.13V20.8364H314.74V22.9228L299.007 22.9185Z" fill="black"/>
<path d="M409.185 22.9635C408.46 22.9635 407.793 22.9635 407.129 22.9635C407.038 22.9635 406.914 22.8248 406.871 22.7246C406.154 21.3166 405.448 19.9057 404.754 18.492C404.722 18.3987 404.658 18.3195 404.573 18.2678C404.488 18.216 404.388 18.195 404.29 18.2083C400.445 18.2168 396.601 18.2168 392.757 18.2083C392.654 18.1986 392.55 18.2242 392.464 18.2808C392.377 18.3375 392.313 18.4218 392.282 18.5198C391.61 19.9256 390.927 21.323 390.255 22.7288C390.23 22.8094 390.178 22.8789 390.107 22.9252C390.036 22.9716 389.951 22.9919 389.866 22.9827C389.234 22.9656 388.599 22.9827 387.911 22.9827L398.547 0.979492C402.102 8.30749 405.632 15.612 409.185 22.9635ZM398.431 5.77522L393.447 16.0984H403.556C401.851 12.6574 400.16 9.24616 398.439 5.77522H398.431Z" fill="black"/>
<path d="M372.154 22.9441H370.074V1.18408H372.154V22.9441Z" fill="black"/>
</g>
<defs>
<clipPath id="clip0_158_539">
<rect width="410" height="24" fill="white"/>
</clipPath>
</defs>
</svg>
