<svg width="24" height="24" viewBox="0 0 24 24" fill="none" xmlns="http://www.w3.org/2000/svg">
<g clip-path="url(#clip0_58_713)">
<path d="M16.2823 7.5C15.5807 3.31406 13.9258 0.375 12 0.375C10.0742 0.375 8.41939 3.31406 7.71777 7.5H16.2823Z" fill="#444444"/>
<path d="M7.35486 12C7.35486 13.0406 7.41292 14.0391 7.51454 15H16.4807C16.5823 14.0391 16.6403 13.0406 16.6403 12C16.6403 10.9594 16.5823 9.96093 16.4807 8.99999H7.51454C7.41292 9.96093 7.35486 10.9594 7.35486 12ZM23.0661 7.49999C21.6823 4.31718 18.8807 1.85624 15.421 0.862488C16.6016 2.44686 17.4145 4.8328 17.8403 7.49999H23.0661Z" fill="#444444"/>
<path d="M8.57416 0.862488C5.11932 1.85624 2.31287 4.31718 0.933838 7.49999H6.15964C6.58061 4.8328 7.39351 2.44686 8.57416 0.862488Z" fill="#444444"/>
<path d="M23.5838 9H18.0338C18.1354 9.98438 18.1935 10.9922 18.1935 12C18.1935 13.0078 18.1354 14.0156 18.0338 15H23.579C23.8451 14.0391 23.9951 13.0406 23.9951 12C23.9951 10.9594 23.8451 9.96094 23.5838 9Z" fill="#444444"/>
<path d="M5.80645 12C5.80645 10.9922 5.86452 9.98438 5.96613 9H0.416129C0.154839 9.96094 0 10.9594 0 12C0 13.0406 0.154839 14.0391 0.416129 15H5.96129C5.86452 14.0156 5.80645 13.0078 5.80645 12ZM7.71774 16.5C8.41935 20.6859 10.0742 23.625 12 23.625C13.9258 23.625 15.5806 20.6859 16.2823 16.5H7.71774ZM15.4258 23.1375C18.8806 22.1438 21.6871 19.6828 23.071 16.5H17.8452C17.4194 19.1672 16.6065 21.5531 15.4258 23.1375Z" fill="#444444"/>
<path d="M0.933838 16.5C2.31771 19.6828 5.11932 22.1438 8.579 23.1375C7.39835 21.5531 6.58545 19.1672 6.15964 16.5H0.933838Z" fill="#444444"/>
</g>
<defs>
<clipPath id="clip0_58_713">
<rect width="24" height="24" fill="white"/>
</clipPath>
</defs>
</svg>
