<svg width="300" height="40" viewBox="0 0 300 40" fill="none" xmlns="http://www.w3.org/2000/svg">
<path d="M101.66 12.808H83.0045V27.192H101.66V12.808Z" fill="#FFEB00"/>
<path d="M130.946 14.864V25.1307H116.418V14.864H130.946ZM133.249 12.808H114.121V27.192H133.245V12.808H133.249Z" fill="#FFEB00"/>
<path d="M46.5603 27.1626C46.1377 27.1626 45.7314 27.1693 45.3251 27.156C45.2628 27.156 45.1896 27.0746 45.1409 27.0146C43.4452 24.82 41.7508 22.624 40.0578 20.4266L36.5824 15.9173C36.5418 15.864 36.4998 15.812 36.4226 15.716V27.148H35.1075V13.548C35.5314 13.548 35.9553 13.548 36.3792 13.548C36.4348 13.548 36.4957 13.636 36.5404 13.6933L40.4871 18.8093L45.1219 24.8226C45.1517 24.86 45.1856 24.896 45.2438 24.9626V13.5666H46.5603V27.1626Z" fill="black"/>
<path d="M59.6695 27.1294V13.556C59.7143 13.5476 59.7595 13.5418 59.805 13.5387C61.5088 13.5387 63.2154 13.5187 64.9192 13.5494C67.651 13.5974 70.1567 15.3667 71.1332 17.884C71.5714 18.9714 71.7115 20.1532 71.5395 21.3107C71.1088 24.1107 69.0339 26.332 66.3251 26.9467C65.8161 27.0612 65.2963 27.1229 64.7743 27.1307C63.1287 27.1534 61.4804 27.1387 59.8334 27.1387C59.7806 27.1387 59.7291 27.1334 59.6695 27.1294ZM61.0036 25.8294C61.0632 25.8294 61.0998 25.836 61.1391 25.836C62.3404 25.836 63.5418 25.836 64.7418 25.836C65.3889 25.8389 66.0312 25.7269 66.6379 25.5054C68.0017 25.0043 69.1141 24.0007 69.7397 22.7067C70.3653 21.4128 70.4551 19.93 69.9901 18.572C69.2695 16.4294 67.1309 14.88 64.8433 14.8574C63.6163 14.8454 62.3892 14.8574 61.1634 14.8574C61.1133 14.8574 61.0632 14.8574 61.0036 14.868V25.8294Z" fill="black"/>
<path d="M153.633 27.1653C153.597 27.1413 151.276 23.8493 150.164 22.2733C150.131 22.2175 150.082 22.172 150.024 22.142C149.966 22.1121 149.9 22.0989 149.835 22.104C148.751 22.1106 147.668 22.104 146.584 22.104H146.355V27.1266H145.036V13.556C145.067 13.5472 145.098 13.5414 145.13 13.5386C147.111 13.5386 149.095 13.5146 151.077 13.5573C152.848 13.596 154.539 14.9066 155.074 16.568C155.751 18.664 154.617 20.9453 152.5 21.76C152.237 21.8613 151.967 21.9413 151.67 22.0413C152.846 23.732 154.056 25.4586 155.242 27.1653H153.633ZM146.358 20.8H146.58C147.943 20.8 149.305 20.8 150.666 20.8C151.396 20.8083 152.109 20.5832 152.698 20.1586C153.891 19.316 154.307 17.784 153.626 16.5386C153.008 15.408 152 14.8453 150.703 14.8333C149.321 14.82 147.94 14.8333 146.558 14.8333C146.496 14.8333 146.434 14.8333 146.362 14.844L146.358 20.8Z" fill="black"/>
<path d="M22.4655 27.132H21.1679V13.524H22.4655V27.132Z" fill="black"/>
<path d="M196.34 13.5613V27.144H195.034V16.0213L194.992 16.0093L189.181 25.2573L183.371 16.012H183.339V27.14H182.015V13.5627C182.442 13.5627 182.859 13.5627 183.278 13.5707C183.336 13.5707 183.405 13.6627 183.446 13.7267C184.34 15.1489 185.233 16.5711 186.125 17.9933C187.104 19.556 188.084 21.1182 189.065 22.68C189.099 22.732 189.135 22.7827 189.181 22.8507C189.229 22.7787 189.268 22.7173 189.305 22.6653C191.171 19.6929 193.036 16.7196 194.898 13.7453C194.929 13.6842 194.978 13.6338 195.038 13.6011C195.099 13.5684 195.168 13.5549 195.237 13.5627C195.597 13.5707 195.959 13.5613 196.34 13.5613Z" fill="black"/>
<path d="M231.107 27.1493V13.5826C231.152 13.5724 231.197 13.5657 231.242 13.5626C232.94 13.5626 234.639 13.54 236.336 13.5733C237.99 13.6261 239.57 14.2617 240.788 15.3646C242.007 16.4674 242.782 17.9642 242.974 19.5824C243.165 21.2007 242.76 22.8329 241.833 24.182C240.905 25.5311 239.516 26.5074 237.918 26.9333C237.368 27.0712 236.804 27.145 236.236 27.1533C234.577 27.1813 232.918 27.164 231.257 27.164C231.214 27.16 231.169 27.1546 231.107 27.1493ZM232.442 25.8546H232.675C233.793 25.8546 234.91 25.8546 236.026 25.8546C236.298 25.8555 236.569 25.8417 236.839 25.8133C238.238 25.6364 239.516 24.9444 240.417 23.8766C241.318 22.8089 241.775 21.4446 241.696 20.0586C241.616 18.6726 241.006 17.3678 239.988 16.4069C238.97 15.446 237.62 14.9004 236.21 14.88C235.002 14.8653 233.795 14.88 232.587 14.88C232.539 14.8826 232.49 14.8879 232.442 14.896V25.8546Z" fill="black"/>
<path d="M209.451 27.132V13.5587H219.358V14.848H210.79V19.5893H218.114V20.8973H210.788V25.8307H219.359V27.1347L209.451 27.132Z" fill="black"/>
<path d="M278.832 27.16C278.376 27.16 277.956 27.16 277.537 27.16C277.48 27.16 277.402 27.0733 277.375 27.0106C276.923 26.1306 276.479 25.2489 276.042 24.3653C276.022 24.307 275.981 24.2575 275.928 24.2251C275.875 24.1928 275.811 24.1797 275.749 24.188C273.329 24.1933 270.908 24.1933 268.487 24.188C268.422 24.1819 268.357 24.1979 268.303 24.2333C268.248 24.2687 268.208 24.3214 268.188 24.3826C267.765 25.2613 267.335 26.1346 266.912 27.0133C266.896 27.0637 266.863 27.1071 266.818 27.1361C266.774 27.165 266.72 27.1777 266.667 27.172C266.269 27.1613 265.869 27.172 265.436 27.172L272.133 13.42C274.372 18 276.595 22.5653 278.832 27.16ZM272.06 16.4173L268.922 22.8693H275.288C274.214 20.7186 273.149 18.5866 272.065 16.4173H272.06Z" fill="black"/>
<path d="M255.513 27.148H254.204V13.548H255.513V27.148Z" fill="black"/>
</svg>
